<?xml version="1.0" encoding="UTF-8" standalone="no"?>
<!-- Created with Inkscape (http://www.inkscape.org/) -->

<svg
   width="210mm"
   height="70mm"
   viewBox="0 0 210 70"
   version="1.1"
   id="svg5"
   inkscape:version="1.1 (c68e22c387, 2021-05-23)"
   sodipodi:docname="logo-oficial-red.svg"
   inkscape:export-filename="D:\Sistemas\moda-tours\logo-oficial.png"
   inkscape:export-xdpi="96"
   inkscape:export-ydpi="96"
   xmlns:inkscape="http://www.inkscape.org/namespaces/inkscape"
   xmlns:sodipodi="http://sodipodi.sourceforge.net/DTD/sodipodi-0.dtd"
   xmlns="http://www.w3.org/2000/svg"
   xmlns:svg="http://www.w3.org/2000/svg">
  <sodipodi:namedview
     id="namedview7"
     pagecolor="#ffffff"
     bordercolor="#666666"
     borderopacity="1.0"
     inkscape:pageshadow="2"
     inkscape:pageopacity="0.0"
     inkscape:pagecheckerboard="0"
     inkscape:document-units="mm"
     showgrid="false"
     showguides="true"
     inkscape:guide-bbox="true"
     inkscape:zoom="0.65512531"
     inkscape:cx="327.41828"
     inkscape:cy="81.663766"
     inkscape:window-width="1366"
     inkscape:window-height="705"
     inkscape:window-x="-8"
     inkscape:window-y="-8"
     inkscape:window-maximized="1"
     inkscape:current-layer="g161891"
     height="10mm"
     width="210mm">
    <sodipodi:guide
       position="-8.6831353,306.28894"
       orientation="0,-1"
       id="guide155766" />
    <sodipodi:guide
       position="-23.020405,325.47261"
       orientation="0,-1"
       id="guide156023" />
  </sodipodi:namedview>
  <defs
     id="defs2">
    <linearGradient
       id="linearGradient100570"
       inkscape:swatch="solid">
      <stop
         style="stop-color:#dac558;stop-opacity:1;"
         offset="0"
         id="stop100568" />
    </linearGradient>
    <linearGradient
       id="linearGradient94451"
       inkscape:swatch="solid">
      <stop
         style="stop-color:#dac55c;stop-opacity:1;"
         offset="0"
         id="stop94449" />
    </linearGradient>
  </defs>
  <g
     inkscape:label="Capa 1"
     inkscape:groupmode="layer"
     id="layer1">
    <text
       xml:space="preserve"
       style="font-style:normal;font-weight:normal;font-size:10.5833px;line-height:1.25;font-family:sans-serif;fill:#000000;fill-opacity:1;stroke:none;stroke-width:0.264583"
       x="132.79326"
       y="15.421154"
       id="text133639"><tspan
         sodipodi:role="line"
         id="tspan133637"
         style="stroke-width:0.264583"
         x="132.79326"
         y="15.421154" /></text>
    <g
       id="g155527"
       transform="rotate(-3.2008244,112.50594,-16.496043)" />
    <g
       id="g161891">
      <path
         style="opacity:0;mix-blend-mode:multiply;fill:#312800;fill-opacity:1;stroke:#000009;stroke-width:0.841856;stroke-linecap:butt;stroke-linejoin:miter;stroke-miterlimit:4;stroke-dasharray:none;stroke-opacity:1"
         d="m 77.381451,33.167557 8.702872,-0.05048 -0.669452,5.603651 -17.597018,-1.766917 19.796645,-16.356603 3.012533,0.15145 10.519959,18.476904 -11.285046,0.05048 -5.929431,-10.349086 z"
         id="path83865" />
      <path
         style="fill:none;stroke:#000000;stroke-width:0.257504px;stroke-linecap:butt;stroke-linejoin:miter;stroke-opacity:1"
         d="m 56.021371,21.225659 v 0"
         id="path104223" />
      <path
         style="fill:#dac558;fill-opacity:1;stroke:#000300;stroke-width:0.93918;stroke-linecap:butt;stroke-linejoin:miter;stroke-miterlimit:4;stroke-dasharray:none;stroke-opacity:1"
         d="m 4.1430556,42.326739 97.9826344,1.69829 9.14288,7.14566 25.461,-22.941606 -5.63562,-5.127993 74.27929,-0.947236 0.92156,-4.301636 -78.80925,2.225931 L 114.72799,7.078434 89.410849,31.831787 97.10572,39.669684 4.8202476,37.028286 Z"
         id="path120918"
         sodipodi:nodetypes="ccccccccccccc" />
      <text
         xml:space="preserve"
         style="font-style:normal;font-weight:normal;font-size:11.7786px;line-height:1.25;font-family:sans-serif;fill:#f9f9ed;fill-opacity:1;stroke:none;stroke-width:0.294466"
         x="7.9174261"
         y="53.060242"
         id="text1101"
         transform="matrix(0.94359683,0.002478,-0.00200754,1.0597694,0,0)"><tspan
           sodipodi:role="line"
           id="tspan1099"
           style="font-style:normal;font-variant:normal;font-weight:bold;font-stretch:normal;font-family:'Sitka Banner';-inkscape-font-specification:'Sitka Banner Bold';fill:#ff2a2a;fill-opacity:1;stroke-width:0.294466"
           x="7.9174261"
           y="53.060242">El Encanto de Viajar...</tspan></text>
      <path
         style="fill:#dac558;fill-opacity:1;stroke:#000000;stroke-width:0.93918;stroke-linecap:butt;stroke-linejoin:miter;stroke-miterlimit:4;stroke-dasharray:none;stroke-opacity:1"
         d="m 4.8202462,37.028286 5.7893898,-0.29232 1.37641,-7.28258 5.641587,7.049004 8.501768,-5.861543 -2.025582,6.25257 10.314098,0.134537 4.804768,-19.598444 -6.357614,0.542558 -11.267531,8.486866 -8.237013,-8.486866 H 7.8901856 Z"
         id="path67178"
         sodipodi:nodetypes="ccccccccccccc" />
      <path
         id="path69189"
         style="fill:#dac558;fill-opacity:1;stroke:#000000;stroke-width:0.95829;stroke-linecap:butt;stroke-linejoin:miter;stroke-miterlimit:4;stroke-dasharray:none;stroke-opacity:1"
         d="m 43.580874,17.086473 c -7.076339,6.529918 -8.016022,13.151169 -4.127017,19.906284 l 15.643773,0.476898 c 7.534533,-4.564966 9.759119,-14.435614 3.725506,-19.821816 z m 8.419494,5.554443 c 0.672813,-0.03954 1.433513,0.147252 2.624338,1.376405 -0.02539,3.346843 -1.996424,7.693881 -3.298068,9.14616 -1.401042,0.136202 -3.74869,0.27011 -3.724431,-1.623005 0.04541,-2.935545 0.324796,-7.292846 3.03072,-8.762228 0.487739,0.02238 0.907094,-0.110274 1.367441,-0.137332 z"
         sodipodi:nodetypes="cccccsccccss" />
      <path
         id="path74992"
         style="fill:#dac558;fill-opacity:1;stroke:#000400;stroke-width:0.939179;stroke-linecap:butt;stroke-linejoin:miter;stroke-miterlimit:4;stroke-dasharray:none;stroke-opacity:1"
         d="m 64.211893,18.106577 -3.94428,20.496355 16.539097,-0.0224 c 9.117216,-5.007004 9.471027,-15.147112 5.537337,-19.712039 z m 7.425095,4.642072 4.938394,1.84659 c -0.15735,2.824682 -2.409338,6.631955 -3.687025,7.846982 l -3.810836,0.07685 z"
         sodipodi:nodetypes="cccccccccc" />
      <g
         id="g109603"
         transform="matrix(0.97603861,-0.05762556,0.05738282,1.0832967,-2.6177276,35.482618)">
        <path
           style="mix-blend-mode:normal;fill:#dac558;fill-opacity:1;stroke:#000400;stroke-width:0.965;stroke-linecap:butt;stroke-linejoin:miter;stroke-miterlimit:4;stroke-dasharray:none;stroke-opacity:1"
           d="m 93.307442,2.721432 9.187968,-0.05048 -0.70677,5.603652 -18.724711,-0.9358996 21.046941,-17.1876214 3.18046,0.15145 11.10634,18.476904 -11.91408,0.05048 -6.25993,-10.349086 z"
           id="path87660"
           sodipodi:nodetypes="cccccccccc" />
        <path
           style="fill:#f9f9ed;fill-opacity:1;stroke:none;stroke-width:0.245472px;stroke-linecap:butt;stroke-linejoin:miter;stroke-opacity:1"
           d="m 100.22366,-1.519169 6.25993,10.349086 11.91408,-0.05048 -10.21186,-15.9985523 z"
           id="path104500"
           sodipodi:nodetypes="ccccc" />
        <path
           style="fill:#f9f9ed;fill-opacity:1;stroke:none;stroke-width:0.247364px;stroke-linecap:butt;stroke-linejoin:miter;stroke-opacity:1"
           d="m 101.28932,7.668803 0.76191,-4.543501 -9.904905,0.04093 3.194362,3.993012 z"
           id="path104648" />
      </g>
      <text
         xml:space="preserve"
         style="font-style:normal;font-weight:normal;font-size:9.83317px;line-height:1.25;font-family:sans-serif;fill:#f9f9ed;fill-opacity:1;stroke:none;stroke-width:0.24583;stroke-opacity:1"
         x="11.053672"
         y="12.694847"
         id="text123088"
         transform="matrix(0.93004094,0.0217227,-0.00155681,1.0751851,0,0)"><tspan
           sodipodi:role="line"
           id="tspan123086"
           style="font-style:normal;font-variant:normal;font-weight:normal;font-stretch:normal;font-family:'Berlin Sans FB Demi';-inkscape-font-specification:'Berlin Sans FB Demi';fill:#ff2a2a;fill-opacity:1;stroke:none;stroke-width:0.24583;stroke-opacity:1"
           x="11.053672"
           y="12.694847">EMP. TRANS.</tspan></text>
      <path
         id="path69189-0"
         style="fill:#f9f9ed;fill-opacity:1;stroke:#000000;stroke-width:0.663296;stroke-linecap:butt;stroke-linejoin:miter;stroke-miterlimit:4;stroke-dasharray:none;stroke-opacity:1"
         d="m 137.73047,27.418348 c -5.61916,5.530549 -5.39681,12.137328 -2.55811,18.118227 l 10.96651,-0.07257 c 5.40718,-3.977902 8.12904,-13.665239 3.75163,-18.452549 z m 6.09811,4.950653 c 0.48478,-0.03064 1.03409,0.13885 1.89891,1.230164 -7.6e-4,2.950985 -1.69151,6.328615 -2.62215,7.601012 -1.0092,0.111289 -2.408,0.657686 -2.40043,-1.011453 0.0173,-2.588188 0.1959,-6.42857 2.13869,-7.707221 0.35169,0.02279 0.65329,-0.09153 0.98498,-0.112499 z"
         sodipodi:nodetypes="cccccsccccss" />
      <path
         style="fill:#f9f9ed;fill-opacity:1;stroke:#000000;stroke-width:0.647207;stroke-linecap:butt;stroke-linejoin:miter;stroke-miterlimit:4;stroke-dasharray:none;stroke-opacity:1"
         d="m 116.06892,45.115902 8.25191,0.27124 2.89725,-13.114982 5.31286,-0.06086 0.7887,-5.001664 -17.79022,-0.415965 -1.21007,6.088347 4.40574,-0.0073 z"
         id="path111076" />
      <path
         style="fill:#f9f9ed;fill-opacity:1;stroke:#000300;stroke-width:0.647207;stroke-linecap:butt;stroke-linejoin:miter;stroke-miterlimit:4;stroke-dasharray:none;stroke-opacity:1"
         d="m 153.39365,27.585033 7.38985,0.271572 c -1.10546,4.129992 -2.78678,7.956284 -3.07251,12.518584 2.207,0.375768 4.38362,0.177881 6.54085,-0.386173 2.0408,-2.955121 2.68014,-8.149266 3.83908,-12.513281 l 3.54101,-0.05738 -2.53194,10.969803 c -1.16249,3.795765 -1.81773,5.661004 -3.59619,7.14782 l -13.05871,0.307454 c -1.44029,-0.502577 -1.80735,-1.51527 -1.63223,-2.785679 z"
         id="path112112"
         sodipodi:nodetypes="ccccccccccc" />
      <g
         id="g118006"
         transform="matrix(0.94572552,-0.05963691,0.05288791,1.0664091,-0.89012693,47.481743)">
        <path
           style="fill:#f9f9ed;fill-opacity:1;stroke:#000200;stroke-width:0.665;stroke-linecap:butt;stroke-linejoin:miter;stroke-miterlimit:4;stroke-dasharray:none;stroke-opacity:1"
           d="m 178.68149,7.848426 7.87541,0.2524168 2.87755,-12.5198698 4.5435,0.4543503 c 0.19371,1.0654471 0.12272,1.967999 -1.41354,1.9688505 l -3.48334,-0.201933 -0.0505,2.57465088 2.89603,8.53164442 8.25926,0.4618833 -4.441,-9.04401132 c 4.83157,0.37904692 5.80307,-6.00711308 3.23093,-8.12781908 l -14.69065,-0.706767 z"
           id="path113820"
           sodipodi:nodetypes="ccccccccccccc" />
        <path
           style="fill:#000000;fill-opacity:1;stroke:#000000;stroke-width:0.264583px;stroke-linecap:butt;stroke-linejoin:miter;stroke-opacity:1"
           d="m 189.11062,-2.7261003 3.48334,0.201933 c 1.43107,-0.3837873 1.0778,-1.254213 1.11064,-2.019334 l -4.2406,-0.403867 z"
           id="path117329"
           sodipodi:nodetypes="ccccc" />
      </g>
      <path
         style="fill:#f9f9ed;fill-opacity:1;stroke:#000100;stroke-width:0.702977;stroke-linecap:butt;stroke-linejoin:miter;stroke-miterlimit:4;stroke-dasharray:none;stroke-opacity:1"
         d="m 188.30433,41.420642 0.622,4.115336 9.44539,-0.134594 c 6.11963,-3.409738 3.7795,-8.093003 -0.94385,-14.233262 l 5.85364,-0.112466 -0.0688,-3.637308 H 193.1279 c -3.99535,2.517851 -5.54041,6.453257 1.37707,14.076548 z"
         id="path118121"
         sodipodi:nodetypes="ccccccccc" />
      <text
         xml:space="preserve"
         style="font-style:normal;font-weight:normal;font-size:8.24043px;line-height:1.25;font-family:sans-serif;fill:#000000;fill-opacity:1;stroke:#f9f9ed;stroke-width:0.233587;stroke-miterlimit:4;stroke-dasharray:none;stroke-opacity:1"
         x="158.31012"
         y="43.829792"
         id="text134105"
         transform="matrix(0.77253586,0.0014067,-0.00211469,1.2944344,0,0)"><tspan
           sodipodi:role="line"
           id="tspan134103"
           style="font-style:normal;font-variant:normal;font-weight:bold;font-stretch:normal;font-family:'Berlin Sans FB Demi';-inkscape-font-specification:'Berlin Sans FB Demi Bold';fill:#000000;fill-opacity:1;stroke:none;stroke-width:0.233587;stroke-miterlimit:4;stroke-dasharray:none;stroke-opacity:1"
           x="158.31012"
           y="43.829792">RUC. 20393819660</tspan></text>
      <text
         xml:space="preserve"
         style="font-style:normal;font-weight:normal;font-size:10.3001px;line-height:1.25;font-family:sans-serif;fill:#000000;fill-opacity:1;stroke:#f9f9ed;stroke-width:0.257504;stroke-opacity:1"
         x="186.7438"
         y="49.956432"
         id="text143992"
         transform="matrix(0.97316276,0.01324665,-0.01254728,1.0274065,0,0)"><tspan
           sodipodi:role="line"
           id="tspan143990"
           style="font-style:normal;font-variant:normal;font-weight:bold;font-stretch:normal;font-family:'Eras Bold ITC';-inkscape-font-specification:'Eras Bold ITC Bold';stroke:none;stroke-width:0.257504;stroke-opacity:1"
           x="186.7438"
           y="49.956432">SAC</tspan></text>
    </g>
  </g>
</svg>
